<svg width="177" height="20" viewBox="0 0 177 20" fill="none" xmlns="http://www.w3.org/2000/svg">
<g id="Group 20">
<g id="Group">
<path id="Vector" d="M8.74235 13.0059C9.11471 13.6694 9.68135 14.7809 10.4908 15.1293V15.2454H7.99763V15.1293C8.5157 14.8307 8.07858 14.1671 7.5929 13.2215L5.09971 8.31119C4.59783 8.39414 4.09595 8.42732 3.54551 8.42732H1.84561V13.8851C1.84561 14.4325 2.07226 14.9468 2.55795 15.1293V15.2454H0V15.1293C0.485686 14.9302 0.679961 14.4325 0.679961 13.8851V2.14007C0.679961 1.44333 0.485686 1.07838 0 0.879307V0.763184H3.61027C6.55677 0.763184 9.48707 0.99543 9.48707 4.46254C9.48707 6.23756 8.14334 7.48174 6.2006 8.06236L8.72616 12.9893L8.74235 13.0059ZM3.54551 8.1453C6.29773 8.1453 8.22429 7.03384 8.22429 4.44595C8.22429 1.31062 6.26535 1.02861 3.61027 1.02861H1.8618V8.1453H3.54551Z" fill="white"/>
<path id="Vector_2" d="M20.6094 13.9848V14.0511C20.4151 15.0299 19.9618 15.4114 19.2494 15.4114C18.4723 15.4114 17.8086 14.8142 17.7762 13.4207V13.3212C16.8696 14.5322 15.5582 15.4114 13.9716 15.4114C12.4984 15.4114 11.5432 14.5986 11.5432 13.288C11.5432 11.9775 12.547 10.9987 14.7487 10.2025L17.7762 9.10758V8.29472C17.7762 7.08372 17.2905 5.35846 15.2182 5.35846C13.3403 5.35846 12.126 6.98419 12.126 8.22836H12.0289C12.0289 6.60264 13.1622 4.79443 15.4287 4.79443C17.9219 4.79443 18.8123 6.46993 18.8123 8.79239V13.57C18.8123 14.4327 19.1037 14.781 19.6866 14.781C20.0751 14.781 20.3827 14.5488 20.5932 14.0179H20.6094V13.9848ZM17.7762 13.1055V9.22371L15.0078 10.3849C13.0812 11.1812 12.5632 12.16 12.5632 13.0889C12.5632 14.1506 13.2755 14.8142 14.4411 14.8142C16.1249 14.8142 17.161 13.8852 17.7762 13.1055Z" fill="white"/>
<path id="Vector_3" d="M27.684 5.05981H29.7077V5.14276C29.0439 5.52431 28.8173 6.15469 28.6716 6.50306L25.1746 16.1745L24.867 17.0039C24.2518 18.6794 23.5718 19.3596 22.6005 19.3596C22.1795 19.3596 21.6129 19.2268 21.111 18.8453L21.4834 17.7504H21.5643C21.7586 18.0656 22.4548 18.5135 23.0376 18.4803C23.5718 18.4638 24.1061 18.1817 24.4137 17.485L24.9803 16.2076L21.2891 6.76849C20.933 5.87268 20.7225 5.59066 20.1882 5.17594V5.05981H23.0052V5.17594C22.39 5.37501 21.9691 5.8395 22.3576 6.86802L25.4175 14.6649L28.3316 6.55283C28.5097 6.02198 28.3316 5.47454 27.684 5.14276V5.05981Z" fill="white"/>
<path id="Vector_4" d="M46.0432 13.8849C46.0432 14.4324 46.2536 14.9466 46.7393 15.1291V15.2452H44.3109V15.1291C44.7966 14.93 44.9909 14.4324 44.9909 13.8849V8.72574C44.9909 6.41986 43.9062 5.32499 42.4491 5.32499C40.992 5.32499 39.9235 6.2208 39.1626 7.21614V13.8849C39.1626 14.4324 39.3731 14.9466 39.8588 15.1291V15.2452H37.4303V15.1291C37.916 14.93 38.1103 14.4324 38.1103 13.8849V8.72574C38.1103 6.41986 37.0256 5.32499 35.5685 5.32499C34.1115 5.32499 32.9944 6.02173 32.3145 6.95071V13.8683C32.3145 14.4158 32.5249 14.93 33.0106 15.1125V15.2286H30.5822V15.1125C31.0679 14.9135 31.2621 14.4158 31.2621 13.8683V7.34885C31.2621 6.46963 30.906 6.15444 30.5012 5.78948V5.68995C31.165 5.40793 31.6669 5.17569 32.1687 4.92685H32.2497V6.818C32.9458 5.68995 34.3543 4.72778 36.0057 4.72778C38.3693 4.72778 38.9684 6.70188 39.0655 7.1166C39.7131 5.92219 41.1539 4.72778 42.87 4.72778C45.5251 4.72778 46.0432 7.10002 46.0432 9.02434V13.8683V13.8849Z" fill="white"/>
<path id="Vector_5" d="M48.3579 10.1361C48.3579 6.91779 50.414 4.74463 53.1014 4.74463C55.7889 4.74463 57.8288 6.78508 57.8288 10.0199C57.8288 13.2548 55.7889 15.3948 53.1014 15.3948C50.414 15.3948 48.3579 13.4041 48.3579 10.1361ZM56.6793 10.0697C56.6793 7.00074 55.1251 4.97688 53.0853 4.97688C51.0454 4.97688 49.475 7.00074 49.475 10.0697C49.475 13.1387 51.0292 15.146 53.0853 15.146C55.1413 15.146 56.6793 13.1719 56.6793 10.0697Z" fill="white"/>
<path id="Vector_6" d="M68.2552 13.8849C68.2552 14.4324 68.4656 14.9466 68.9513 15.1291V15.2452H66.5229V15.1291C67.0086 14.93 67.2028 14.4324 67.2028 13.8849V8.72574C67.2028 6.41986 66.1181 5.32499 64.6611 5.32499C63.204 5.32499 62.0869 6.02173 61.407 6.95071V13.8683C61.407 14.4158 61.6174 14.93 62.1031 15.1125V15.2286H59.6747V15.1125C60.1604 14.9135 60.3547 14.4158 60.3547 13.8683V7.34885C60.3547 6.46963 59.9985 6.15444 59.5938 5.78948V5.68995C60.2575 5.40793 60.7594 5.17569 61.2613 4.92685H61.3584V6.818C62.0384 5.68995 63.4307 4.72778 65.082 4.72778C67.7371 4.72778 68.239 7.10002 68.239 9.02434V13.8683L68.2552 13.8849Z" fill="white"/>
<path id="Vector_7" d="M79.2315 0.033178V13.885C79.2315 14.4325 79.4419 14.9467 79.9276 15.1292V15.2453H78.2925L78.1792 13.2546C77.4668 14.4656 76.1393 15.378 74.5851 15.378C72.3671 15.378 70.5701 13.4869 70.5701 10.4843C70.5701 7.00057 72.7557 4.72787 75.1193 4.72787C76.1555 4.72787 77.4668 5.30849 78.1953 6.2043V2.422C78.1953 1.54278 77.8392 1.22759 77.4344 0.86263V0.779685C77.9525 0.547438 78.6325 0.265424 79.1667 0H79.2477L79.2315 0.033178ZM78.1792 13.1053V6.3536C77.5154 5.64027 76.3174 5.2919 75.3784 5.2919C73.2575 5.2919 71.6871 7.19964 71.6871 10.4677C71.6871 13.039 73.0309 14.7808 74.9089 14.7808C76.3497 14.7808 77.483 14.1007 78.163 13.0887L78.1792 13.1053Z" fill="white"/>
</g>
<g id="Group_2">
<path id="Vector_8" d="M131.07 8.02909C131.07 3.74912 134.017 0.646973 137.773 0.646973C141.529 0.646973 144.491 3.74912 144.491 8.0125C144.491 12.2759 141.545 15.3946 137.773 15.3946C134.001 15.3946 131.07 12.2925 131.07 8.02909ZM143.18 8.0125C143.18 3.74912 140.865 0.928986 137.757 0.928986C134.648 0.928986 132.333 3.74912 132.333 8.0125C132.349 12.2427 134.664 15.1126 137.757 15.1126C140.849 15.1126 143.18 12.2427 143.18 8.0125Z" fill="white"/>
<path id="Vector_9" d="M146.305 15.2453V15.1292C146.791 14.9301 146.985 14.4325 146.985 13.885V2.4386C146.985 1.55938 146.629 1.24419 146.224 0.879231V0.796286L147.908 0.0166016H148.021V13.8684C148.021 14.4159 148.231 14.9301 148.717 15.1126V15.2287H146.289L146.305 15.2453Z" fill="white"/>
<path id="Vector_10" d="M150.53 15.2453V15.1292C151.016 14.9301 151.21 14.4324 151.21 13.885V7.36552C151.21 6.4863 150.854 6.17111 150.449 5.78956V5.70662C150.967 5.47437 151.615 5.19236 152.181 4.94352H152.262V13.885C152.262 14.4324 152.473 14.9467 152.959 15.1292V15.2453H150.53ZM150.741 1.493C150.741 1.02851 151.113 0.630371 151.599 0.630371C152.052 0.630371 152.441 1.02851 152.441 1.493C152.441 1.99067 152.052 2.38881 151.599 2.38881C151.113 2.38881 150.741 1.99067 150.741 1.493Z" fill="white"/>
<path id="Vector_11" d="M161.102 5.05981H163.11V5.17594C162.397 5.65702 162.235 6.15469 162.106 6.48647L158.431 15.2455H158.253L154.821 6.76849C154.464 5.87268 154.27 5.59066 153.72 5.17594V5.05981H156.537V5.17594C155.938 5.37501 155.484 5.8395 155.889 6.85143L158.706 13.7525L161.701 6.63577C161.976 6.02198 161.669 5.52431 161.118 5.17594V5.05981H161.102Z" fill="white"/>
<path id="Vector_12" d="M163.984 15.2453V15.1292C164.469 14.9301 164.664 14.4324 164.664 13.885V7.36552C164.664 6.4863 164.308 6.17111 163.903 5.78956V5.70662C164.421 5.47437 165.068 5.19236 165.635 4.94352H165.716V13.885C165.716 14.4324 165.927 14.9467 166.412 15.1292V15.2453H163.984ZM164.194 1.493C164.194 1.02851 164.567 0.630371 165.052 0.630371C165.506 0.630371 165.894 1.02851 165.894 1.493C165.894 1.99067 165.506 2.38881 165.052 2.38881C164.567 2.38881 164.194 1.99067 164.194 1.493Z" fill="white"/>
<path id="Vector_13" d="M177 13.9848V14.0511C176.806 15.0299 176.353 15.4114 175.64 15.4114C174.863 15.4114 174.199 14.8142 174.167 13.4207V13.3212C173.26 14.5322 171.949 15.4114 170.363 15.4114C168.889 15.4114 167.934 14.5986 167.934 13.288C167.934 11.9775 168.938 10.9987 171.14 10.2025L174.167 9.10758V8.29472C174.167 7.08372 173.681 5.35846 171.609 5.35846C169.731 5.35846 168.517 6.98419 168.517 8.22836H168.42C168.42 6.60264 169.553 4.79443 171.82 4.79443C174.313 4.79443 175.203 6.46993 175.203 8.79239V13.57C175.203 14.4327 175.495 14.781 176.077 14.781C176.466 14.781 176.774 14.5488 176.984 14.0179H177V13.9848ZM174.167 13.1055V9.22371L171.399 10.3849C169.472 11.1812 168.954 12.16 168.954 13.0889C168.954 14.1506 169.666 14.8142 170.832 14.8142C172.516 14.8142 173.552 13.8852 174.167 13.1055Z" fill="white"/>
</g>
<g id="Group_3">
<path id="Vector_14" d="M97.8174 7.78037H99.0802C98.5945 8.47711 98.1412 9.14067 97.704 9.78764C97.2669 10.4346 96.8784 11.0318 96.5222 11.5958C96.166 12.1599 95.907 12.6244 95.6965 13.0557C95.4861 13.487 95.3889 13.8022 95.3889 14.0344C95.3889 14.3828 95.567 14.5487 95.907 14.5487C96.1822 14.5487 96.5222 14.416 96.9431 14.134C97.3641 13.8685 97.8174 13.487 98.3192 13.0059C98.8211 12.5248 99.323 11.9774 99.8411 11.3304C100.359 10.7 100.845 10.0199 101.314 9.30656L101.428 9.33974C101.071 9.88717 100.667 10.4678 100.197 11.0982C99.7277 11.7286 99.2259 12.3092 98.7078 12.8566C98.1897 13.404 97.6717 13.852 97.1536 14.2169C96.6355 14.5819 96.1498 14.7644 95.6965 14.7644C95.3242 14.7644 95.049 14.6648 94.8709 14.4823C94.6928 14.2833 94.6118 14.0676 94.6118 13.8022C94.6118 13.6197 94.6442 13.4372 94.6928 13.2547C94.7575 13.0723 94.8061 12.8898 94.8709 12.7073H94.8385C94.6766 12.8732 94.4661 13.0889 94.2071 13.3377C93.9481 13.5865 93.689 13.8188 93.3976 14.0178C93.1062 14.2169 92.7986 14.416 92.491 14.5487C92.1834 14.698 91.8758 14.7644 91.6006 14.7644C91.1149 14.7644 90.7911 14.615 90.5968 14.2999C90.4026 14.0013 90.3054 13.6529 90.3054 13.2713C90.3054 12.7239 90.4673 12.1267 90.8073 11.4631C91.1473 10.7996 91.5682 10.1858 92.0863 9.60516C92.6043 9.02455 93.171 8.54346 93.77 8.16192C94.3852 7.78037 94.9518 7.5813 95.5023 7.5813C95.7613 7.5813 95.988 7.61448 96.1822 7.69742C96.3765 7.78037 96.5384 7.86331 96.6679 7.99602C96.7974 8.12874 96.8946 8.26145 96.9755 8.42734C97.0403 8.59323 97.105 8.75912 97.1374 8.92501H97.1698L97.8174 7.74719V7.78037ZM91.4711 13.3543C91.4711 13.6529 91.5358 13.9017 91.6492 14.0676C91.7787 14.2335 91.9406 14.3164 92.1672 14.3164C92.3939 14.3164 92.6529 14.2335 92.9443 14.0676C93.2357 13.9017 93.5595 13.6861 93.8833 13.404C94.2071 13.122 94.5309 12.8068 94.8385 12.4419C95.1623 12.0769 95.4375 11.6954 95.6803 11.2807C95.9232 10.8659 96.1337 10.4512 96.2794 10.0199C96.4413 9.58857 96.506 9.19044 96.506 8.80889C96.506 8.51029 96.4251 8.27804 96.247 8.11215C96.0851 7.94626 95.8746 7.8799 95.6318 7.8799C95.2432 7.8799 94.8061 8.04579 94.3366 8.39416C93.8671 8.74253 93.3976 9.17385 92.9767 9.72128C92.5558 10.2521 92.1834 10.8493 91.892 11.4963C91.6006 12.1433 91.4549 12.7737 91.4549 13.3709L91.4711 13.3543Z" fill="white"/>
<path id="Vector_15" d="M103.192 7.78015L100.634 11.4297L100.667 11.4629C100.942 11.1311 101.249 10.7496 101.622 10.3017C101.978 9.85378 102.367 9.43905 102.787 9.04091C103.208 8.64278 103.629 8.311 104.083 8.02898C104.536 7.76356 104.973 7.61426 105.41 7.61426C105.799 7.61426 106.106 7.73038 106.317 7.94604C106.527 8.1617 106.641 8.44371 106.641 8.79208C106.641 9.00774 106.56 9.25657 106.414 9.55517C106.268 9.85378 106.074 10.1524 105.863 10.4842C105.637 10.8159 105.41 11.1477 105.151 11.4961C104.892 11.8445 104.649 12.1762 104.439 12.4748C104.212 12.79 104.034 13.072 103.888 13.3375C103.743 13.6029 103.662 13.8186 103.662 13.9844C103.662 14.3494 103.84 14.5485 104.212 14.5485C104.633 14.5485 105.07 14.3992 105.54 14.1172C106.009 13.8351 106.56 13.3541 107.207 12.6739C107.466 12.4085 107.725 12.1099 108 11.7947C108.276 11.4795 108.519 11.1643 108.761 10.8491C109.004 10.5339 109.231 10.2353 109.425 9.9699C109.619 9.70448 109.781 9.45564 109.895 9.27316L110.024 9.35611C109.765 9.75424 109.425 10.2353 109.02 10.7828C108.616 11.3302 108.162 11.8776 107.693 12.4085C107.401 12.7237 107.11 13.0389 106.819 13.3209C106.527 13.6195 106.22 13.8683 105.928 14.084C105.637 14.2996 105.329 14.4821 105.038 14.5982C104.746 14.731 104.455 14.7807 104.18 14.7807C103.807 14.7807 103.5 14.6812 103.241 14.4655C102.998 14.2499 102.868 13.9679 102.868 13.5863C102.868 13.1882 103.03 12.7569 103.338 12.2758C103.646 11.8113 103.985 11.3302 104.374 10.8491C104.746 10.368 105.086 9.92013 105.41 9.47223C105.718 9.04092 105.88 8.64278 105.88 8.311C105.88 8.14511 105.831 8.02898 105.718 7.94604C105.621 7.86309 105.475 7.82992 105.313 7.82992C104.989 7.82992 104.633 7.94604 104.228 8.19487C103.824 8.44371 103.419 8.7589 102.998 9.17363C102.577 9.58835 102.156 10.0363 101.735 10.5339C101.314 11.0316 100.926 11.5293 100.553 12.0269C100.197 12.5246 99.8734 13.0057 99.5819 13.4536C99.2905 13.9181 99.0801 14.2996 98.9344 14.5982H97.7363C98.0763 14.0176 98.4325 13.4204 98.821 12.8232C99.2096 12.226 99.5819 11.6288 99.9543 11.0316C100.327 10.4344 100.683 9.87037 101.039 9.32293C101.395 8.77549 101.687 8.27782 101.962 7.81333L103.225 7.74697L103.192 7.78015Z" fill="white"/>
<path id="Vector_16" d="M120.709 0.845947C120.207 1.6754 119.657 2.53803 119.058 3.45043C118.459 4.36282 117.86 5.27522 117.277 6.17103C116.694 7.06683 116.111 7.94605 115.561 8.79209C115.011 9.63813 114.525 10.4012 114.088 11.1146C113.667 11.8113 113.327 12.4251 113.068 12.9394C112.809 13.4536 112.695 13.8186 112.695 14.0674C112.695 14.2167 112.728 14.3328 112.809 14.4158C112.874 14.4987 112.987 14.5485 113.133 14.5485C113.456 14.5485 113.829 14.4158 114.233 14.1504C114.638 13.8849 115.14 13.4702 115.723 12.8896C116.225 12.3919 116.727 11.8279 117.196 11.2141C117.666 10.6003 118.087 9.9865 118.443 9.3893L118.605 9.47224C118.491 9.6879 118.329 9.93674 118.151 10.2187C117.957 10.5008 117.763 10.7994 117.536 11.098C117.309 11.3966 117.067 11.7118 116.808 12.027C116.549 12.3421 116.29 12.6407 116.014 12.9062C115.496 13.4536 114.978 13.9015 114.476 14.2499C113.974 14.5983 113.505 14.7807 113.084 14.7807C112.663 14.7807 112.355 14.6978 112.161 14.5153C111.967 14.3328 111.854 14.1006 111.854 13.8352C111.854 13.5863 111.902 13.3375 112.015 13.1052C112.113 12.873 112.226 12.6573 112.323 12.4749H112.291C112.08 12.6905 111.854 12.9559 111.595 13.2214C111.336 13.4868 111.076 13.7522 110.785 13.9845C110.494 14.2167 110.202 14.4158 109.878 14.5651C109.555 14.7144 109.231 14.7973 108.891 14.7973C108.421 14.7973 108.065 14.648 107.806 14.366C107.547 14.0674 107.434 13.7356 107.434 13.3375C107.434 12.7735 107.628 12.1763 108 11.5127C108.373 10.8491 108.842 10.2353 109.409 9.65472C109.976 9.0907 110.575 8.60961 111.222 8.22807C111.87 7.84652 112.469 7.64745 113.035 7.64745C113.456 7.64745 113.78 7.78016 114.023 8.04559C114.266 8.31101 114.379 8.64279 114.379 9.05752H114.444L119.463 0.879125H120.742L120.709 0.845947ZM113.813 9.04093C113.813 8.72574 113.764 8.44372 113.651 8.21148C113.553 7.97923 113.311 7.84652 112.938 7.84652C112.679 7.84652 112.388 7.94605 112.08 8.12853C111.773 8.31101 111.449 8.55985 111.125 8.85845C110.801 9.15705 110.494 9.50542 110.186 9.90356C109.878 10.3017 109.619 10.6998 109.377 11.098C109.15 11.4961 108.956 11.8942 108.81 12.2758C108.664 12.6573 108.599 13.0057 108.599 13.3043C108.599 13.5863 108.648 13.8186 108.761 14.001C108.859 14.1835 109.053 14.2831 109.328 14.2831C109.555 14.2831 109.83 14.1835 110.137 14.001C110.445 13.8186 110.769 13.5697 111.093 13.2711C111.416 12.9725 111.756 12.6242 112.08 12.2426C112.404 11.8611 112.695 11.4795 112.954 11.0814C113.213 10.6998 113.424 10.3183 113.586 9.95333C113.748 9.58837 113.829 9.27317 113.829 9.00775L113.813 9.04093Z" fill="white"/>
</g>
</g>
</svg>
