<svg width="128" height="14" viewBox="0 0 128 14" fill="none" xmlns="http://www.w3.org/2000/svg">
<g id="Group 20">
<g id="Group">
<path id="Vector" d="M6.32215 9.40535C6.59142 9.88521 7.00119 10.689 7.58658 10.9409V11.0249H5.78359V10.9409C6.15824 10.725 5.84213 10.2451 5.4909 9.56131L3.68792 6.01032C3.32498 6.0703 2.96204 6.0943 2.56398 6.0943H1.33468V10.0412C1.33468 10.4371 1.49858 10.8089 1.84981 10.9409V11.0249H0V10.9409C0.35123 10.797 0.491722 10.4371 0.491722 10.0412V1.5476C0.491722 1.04374 0.35123 0.779815 0 0.635856V0.55188H2.61081C4.74161 0.55188 6.8607 0.719832 6.8607 3.22712C6.8607 4.51075 5.88896 5.41049 4.48404 5.83037L6.31044 9.39335L6.32215 9.40535ZM2.56398 5.89035C4.55429 5.89035 5.9475 5.08658 5.9475 3.21512C5.9475 0.947767 4.53087 0.743825 2.61081 0.743825H1.34638V5.89035H2.56398Z" fill="#1D1D1B"/>
<path id="Vector_2" d="M14.9038 10.1131V10.1611C14.7633 10.8689 14.4355 11.1448 13.9204 11.1448C13.3584 11.1448 12.8784 10.713 12.855 9.70526V9.63328C12.1994 10.509 11.251 11.1448 10.1037 11.1448C9.03829 11.1448 8.34753 10.557 8.34753 9.60929C8.34753 8.66156 9.07341 7.95376 10.6657 7.37792L12.855 6.58615V5.99832C12.855 5.12257 12.5038 3.87492 11.0052 3.87492C9.64709 3.87492 8.76901 5.05059 8.76901 5.95033H8.69876C8.69876 4.77467 9.5183 3.46704 11.1574 3.46704C12.9604 3.46704 13.6043 4.67869 13.6043 6.35821V9.81323C13.6043 10.437 13.815 10.689 14.2365 10.689C14.5175 10.689 14.7399 10.521 14.8921 10.1371H14.9038V10.1131ZM12.855 9.47732V6.67013L10.853 7.50989C9.45976 8.08572 9.08512 8.79352 9.08512 9.46533C9.08512 10.2331 9.60026 10.713 10.4432 10.713C11.6608 10.713 12.4101 10.0412 12.855 9.47732Z" fill="#1D1D1B"/>
<path id="Vector_3" d="M20.0201 3.65906H21.4835V3.71904C21.0035 3.99496 20.8396 4.45083 20.7343 4.70276L18.2054 11.6968L17.9829 12.2966C17.5381 13.5082 17.0463 14.0001 16.3439 14.0001C16.0395 14.0001 15.6297 13.9041 15.2668 13.6282L15.536 12.8364H15.5946C15.7351 13.0644 16.2385 13.3883 16.66 13.3643C17.0463 13.3523 17.4327 13.1483 17.6551 12.6445L18.0649 11.7208L15.3955 4.8947C15.138 4.24689 14.9858 4.04295 14.5994 3.74303V3.65906H16.6366V3.74303C16.1917 3.88699 15.8873 4.2229 16.1683 4.96668L18.381 10.6051L20.4884 4.73875C20.6172 4.35486 20.4884 3.95897 20.0201 3.71904V3.65906Z" fill="#1D1D1B"/>
<path id="Vector_4" d="M33.2967 10.0411C33.2967 10.4369 33.4489 10.8088 33.8001 10.9408V11.0248H32.044V10.9408C32.3952 10.7968 32.5357 10.4369 32.5357 10.0411V6.31012C32.5357 4.6426 31.7513 3.85082 30.6976 3.85082C29.6439 3.85082 28.8712 4.49864 28.3209 5.21843V10.0411C28.3209 10.4369 28.4731 10.8088 28.8244 10.9408V11.0248H27.0682V10.9408C27.4194 10.7968 27.5599 10.4369 27.5599 10.0411V6.31012C27.5599 4.6426 26.7755 3.85082 25.7218 3.85082C24.6681 3.85082 23.8603 4.35468 23.3686 5.02649V10.0291C23.3686 10.4249 23.5208 10.7968 23.872 10.9288V11.0128H22.1158V10.9288C22.4671 10.7848 22.6076 10.4249 22.6076 10.0291V5.3144C22.6076 4.67859 22.35 4.45065 22.0573 4.18673V4.11475C22.5373 3.9108 22.9003 3.74285 23.2632 3.5629H23.3217V4.93051C23.8252 4.11475 24.8437 3.41895 26.0379 3.41895C27.7472 3.41895 28.1804 4.84654 28.2507 5.14645C28.719 4.2827 29.761 3.41895 31.002 3.41895C32.922 3.41895 33.2967 5.13446 33.2967 6.52606V10.0291V10.0411Z" fill="#1D1D1B"/>
<path id="Vector_5" d="M34.9708 7.32992C34.9708 5.00258 36.4577 3.43103 38.4012 3.43103C40.3446 3.43103 41.8198 4.90661 41.8198 7.24594C41.8198 9.58527 40.3446 11.1328 38.4012 11.1328C36.4577 11.1328 34.9708 9.69324 34.9708 7.32992ZM40.9886 7.28193C40.9886 5.06256 39.8646 3.59898 38.3895 3.59898C36.9143 3.59898 35.7787 5.06256 35.7787 7.28193C35.7787 9.5013 36.9026 10.9529 38.3895 10.9529C39.8763 10.9529 40.9886 9.52529 40.9886 7.28193Z" fill="#1D1D1B"/>
<path id="Vector_6" d="M49.3596 10.0411C49.3596 10.4369 49.5118 10.8088 49.863 10.9408V11.0248H48.1068V10.9408C48.4581 10.7968 48.5986 10.4369 48.5986 10.0411V6.31012C48.5986 4.6426 47.8141 3.85082 46.7604 3.85082C45.7068 3.85082 44.8989 4.35468 44.4072 5.02649V10.0291C44.4072 10.4249 44.5594 10.7968 44.9106 10.9288V11.0128H43.1545V10.9288C43.5057 10.7848 43.6462 10.4249 43.6462 10.0291V5.3144C43.6462 4.67859 43.3886 4.45065 43.0959 4.18673V4.11475C43.576 3.9108 43.9389 3.74285 44.3018 3.5629H44.3721V4.93051C44.8638 4.11475 45.8707 3.41895 47.0648 3.41895C48.9849 3.41895 49.3478 5.13446 49.3478 6.52606V10.0291L49.3596 10.0411Z" fill="#1D1D1B"/>
<path id="Vector_7" d="M57.2974 0.0239931V10.0411C57.2974 10.437 57.4496 10.8089 57.8008 10.9409V11.0248H56.6183L56.5364 9.58526C56.0212 10.461 55.0612 11.1208 53.9373 11.1208C52.3333 11.1208 51.0338 9.75321 51.0338 7.58183C51.0338 5.06255 52.6143 3.41902 54.3236 3.41902C55.0729 3.41902 56.0212 3.8389 56.5481 4.48672V1.7515C56.5481 1.11568 56.2905 0.887746 55.9978 0.623822V0.563839C56.3725 0.395887 56.8642 0.191945 57.2505 0H57.3091L57.2974 0.0239931ZM56.5364 9.47729V4.59469C56.0563 4.07883 55.19 3.82691 54.5109 3.82691C52.9772 3.82691 51.8416 5.20651 51.8416 7.56984C51.8416 9.42931 52.8133 10.6889 54.1714 10.6889C55.2134 10.6889 56.0329 10.1971 56.5247 9.46529L56.5364 9.47729Z" fill="#1D1D1B"/>
</g>
<g id="Group_2">
<path id="Vector_8" d="M94.7853 5.80637C94.7853 2.71125 96.9161 0.467896 99.6323 0.467896C102.348 0.467896 104.491 2.71125 104.491 5.79437C104.491 8.87749 102.36 11.1328 99.6323 11.1328C96.9044 11.1328 94.7853 8.88949 94.7853 5.80637ZM103.543 5.79437C103.543 2.71125 101.868 0.671837 99.6206 0.671837C97.3727 0.671837 95.6985 2.71125 95.6985 5.79437C95.7102 8.8535 97.3844 10.9289 99.6206 10.9289C101.857 10.9289 103.543 8.8535 103.543 5.79437Z" fill="#1D1D1B"/>
<path id="Vector_9" d="M105.802 11.0248V10.9408C106.153 10.7969 106.294 10.437 106.294 10.0411V1.76346C106.294 1.12764 106.036 0.899709 105.744 0.635785V0.575802L106.961 0.0119629H107.043V10.0291C107.043 10.425 107.195 10.7969 107.547 10.9288V11.0128H105.791L105.802 11.0248Z" fill="#1D1D1B"/>
<path id="Vector_10" d="M108.858 11.0249V10.9409C109.209 10.797 109.35 10.4371 109.35 10.0412V5.32654C109.35 4.69072 109.092 4.46279 108.799 4.18687V4.12688C109.174 3.95893 109.642 3.75499 110.052 3.57504H110.111V10.0412C110.111 10.4371 110.263 10.809 110.614 10.9409V11.0249H108.858ZM109.01 1.07975C109.01 0.74385 109.279 0.455933 109.631 0.455933C109.958 0.455933 110.239 0.74385 110.239 1.07975C110.239 1.43965 109.958 1.72757 109.631 1.72757C109.279 1.72757 109.01 1.43965 109.01 1.07975Z" fill="#1D1D1B"/>
<path id="Vector_11" d="M116.503 3.65906H117.955V3.74303C117.44 4.09093 117.323 4.45083 117.229 4.69076L114.571 11.025H114.443L111.96 4.8947C111.703 4.24689 111.562 4.04295 111.164 3.74303V3.65906H113.202V3.74303C112.768 3.88699 112.441 4.2229 112.733 4.95469L114.77 9.94526L116.936 4.79873C117.135 4.35486 116.913 3.99496 116.515 3.74303V3.65906H116.503Z" fill="#1D1D1B"/>
<path id="Vector_12" d="M118.587 11.0249V10.9409C118.938 10.797 119.079 10.4371 119.079 10.0412V5.32654C119.079 4.69072 118.821 4.46279 118.529 4.18687V4.12688C118.903 3.95893 119.371 3.75499 119.781 3.57504H119.84V10.0412C119.84 10.4371 119.992 10.809 120.343 10.9409V11.0249H118.587ZM118.739 1.07975C118.739 0.74385 119.009 0.455933 119.36 0.455933C119.688 0.455933 119.969 0.74385 119.969 1.07975C119.969 1.43965 119.688 1.72757 119.36 1.72757C119.009 1.72757 118.739 1.43965 118.739 1.07975Z" fill="#1D1D1B"/>
<path id="Vector_13" d="M128 10.1131V10.1611C127.86 10.8689 127.532 11.1448 127.017 11.1448C126.455 11.1448 125.975 10.713 125.951 9.70526V9.63328C125.296 10.509 124.347 11.1448 123.2 11.1448C122.134 11.1448 121.444 10.557 121.444 9.60929C121.444 8.66156 122.17 7.95376 123.762 7.37792L125.951 6.58615V5.99832C125.951 5.12257 125.6 3.87492 124.101 3.87492C122.743 3.87492 121.865 5.05059 121.865 5.95033H121.795C121.795 4.77467 122.614 3.46704 124.254 3.46704C126.057 3.46704 126.7 4.67869 126.7 6.35821V9.81323C126.7 10.437 126.911 10.689 127.333 10.689C127.614 10.689 127.836 10.521 127.988 10.1371H128V10.1131ZM125.951 9.47732V6.67013L123.949 7.50989C122.556 8.08572 122.181 8.79352 122.181 9.46533C122.181 10.2331 122.696 10.713 123.539 10.713C124.757 10.713 125.506 10.0412 125.951 9.47732Z" fill="#1D1D1B"/>
</g>
<g id="Group_3">
<path id="Vector_14" d="M70.7378 5.6265H71.651C71.2998 6.13036 70.972 6.61022 70.6559 7.07809C70.3398 7.54595 70.0588 7.97783 69.8012 8.38572C69.5437 8.7936 69.3563 9.1295 69.2041 9.44141C69.0519 9.75332 68.9817 9.98126 68.9817 10.1492C68.9817 10.4011 69.1105 10.5211 69.3563 10.5211C69.5554 10.5211 69.8012 10.4251 70.1056 10.2212C70.41 10.0292 70.7378 9.75332 71.1008 9.40542C71.4637 9.05752 71.8267 8.66164 72.2013 8.19377C72.576 7.7379 72.9272 7.24604 73.2667 6.73019L73.3487 6.75418C73.0911 7.15007 72.7984 7.56995 72.4589 8.02582C72.1193 8.48169 71.7564 8.90157 71.3818 9.29745C71.0071 9.69334 70.6325 10.0172 70.2578 10.2812C69.8832 10.5451 69.532 10.6771 69.2041 10.6771C68.9349 10.6771 68.7358 10.6051 68.607 10.4731C68.4783 10.3292 68.4197 10.1732 68.4197 9.98126C68.4197 9.8493 68.4431 9.71733 68.4783 9.58537C68.5251 9.45341 68.5602 9.32145 68.607 9.18949H68.5836C68.4666 9.30945 68.3144 9.46541 68.127 9.64535C67.9397 9.8253 67.7524 9.99326 67.5416 10.1372C67.3309 10.2812 67.1085 10.4251 66.886 10.5211C66.6636 10.6291 66.4411 10.6771 66.2421 10.6771C65.8909 10.6771 65.6567 10.5691 65.5162 10.3412C65.3757 10.1252 65.3055 9.87329 65.3055 9.59737C65.3055 9.20148 65.4226 8.76961 65.6684 8.28974C65.9143 7.80988 66.2187 7.36601 66.5933 6.94613C66.968 6.52625 67.3777 6.17835 67.8109 5.90242C68.2558 5.6265 68.6656 5.48254 69.0636 5.48254C69.251 5.48254 69.4149 5.50654 69.5554 5.56652C69.6959 5.6265 69.8129 5.68649 69.9066 5.78246C70.0003 5.87843 70.0705 5.9744 70.129 6.09437C70.1759 6.21434 70.2227 6.3343 70.2461 6.45427H70.2695L70.7378 5.60251V5.6265ZM66.1484 9.65735C66.1484 9.87329 66.1953 10.0532 66.2772 10.1732C66.3709 10.2932 66.488 10.3532 66.6519 10.3532C66.8158 10.3532 67.0031 10.2932 67.2138 10.1732C67.4246 10.0532 67.6587 9.89728 67.8929 9.69334C68.127 9.4894 68.3612 9.26146 68.5836 8.99754C68.8178 8.73362 69.0168 8.45769 69.1924 8.15778C69.368 7.85787 69.5202 7.55795 69.6256 7.24604C69.7427 6.93413 69.7895 6.64621 69.7895 6.37029C69.7895 6.15435 69.731 5.9864 69.6022 5.86643C69.4851 5.74647 69.3329 5.69848 69.1573 5.69848C68.8763 5.69848 68.5602 5.81845 68.2207 6.07038C67.8812 6.3223 67.5416 6.63421 67.2372 7.0301C66.9329 7.41399 66.6636 7.84587 66.4528 8.31374C66.2421 8.7816 66.1367 9.23747 66.1367 9.66935L66.1484 9.65735Z" fill="#1D1D1B"/>
<path id="Vector_15" d="M74.6248 5.62631L72.775 8.26556L72.7984 8.28955C72.9974 8.04962 73.2199 7.7737 73.4892 7.44979C73.7467 7.12589 74.0277 6.82597 74.3321 6.53805C74.6365 6.25014 74.9409 6.0102 75.2687 5.80626C75.5965 5.61432 75.9127 5.50635 76.2288 5.50635C76.5097 5.50635 76.7322 5.59032 76.8844 5.74628C77.0366 5.90223 77.1185 6.10618 77.1185 6.3581C77.1185 6.51406 77.06 6.69401 76.9546 6.90995C76.8493 7.12589 76.7088 7.34182 76.5566 7.58175C76.3927 7.82169 76.2288 8.06162 76.0414 8.31355C75.8541 8.56547 75.6785 8.80541 75.5263 9.02134C75.3624 9.24928 75.2336 9.45322 75.1282 9.64516C75.0229 9.83711 74.9643 9.99307 74.9643 10.113C74.9643 10.377 75.0931 10.5209 75.3624 10.5209C75.6668 10.5209 75.9829 10.4129 76.3224 10.209C76.6619 10.0051 77.06 9.65716 77.5283 9.1653C77.7156 8.97336 77.903 8.75742 78.102 8.52948C78.301 8.30155 78.4766 8.07361 78.6523 7.84568C78.8279 7.61774 78.9918 7.40181 79.1323 7.20986C79.2728 7.01792 79.3898 6.83797 79.4718 6.706L79.5654 6.76599C79.3781 7.05391 79.1323 7.40181 78.8396 7.79769C78.5469 8.19358 78.2191 8.58947 77.8795 8.97336C77.6688 9.20129 77.4581 9.42923 77.2473 9.63317C77.0366 9.84911 76.8141 10.0291 76.6034 10.185C76.3927 10.341 76.1702 10.4729 75.9595 10.5569C75.7487 10.6529 75.538 10.6889 75.339 10.6889C75.0697 10.6889 74.8473 10.6169 74.6599 10.4609C74.4843 10.305 74.3907 10.101 74.3907 9.82511C74.3907 9.5372 74.5077 9.22529 74.7302 8.87739C74.9526 8.54148 75.1985 8.19358 75.4795 7.84568C75.7487 7.49778 75.9946 7.17387 76.2288 6.84996C76.4512 6.53805 76.5683 6.25014 76.5683 6.0102C76.5683 5.89024 76.5332 5.80626 76.4512 5.74628C76.381 5.6863 76.2756 5.6623 76.1585 5.6623C75.9244 5.6623 75.6668 5.74628 75.3741 5.92623C75.0814 6.10618 74.7887 6.33411 74.4843 6.63403C74.1799 6.93394 73.8755 7.25785 73.5711 7.61774C73.2667 7.97764 72.9857 8.33754 72.7165 8.69744C72.4589 9.05733 72.2247 9.40523 72.014 9.72914C71.8033 10.065 71.6511 10.341 71.5457 10.5569H70.6793C70.9252 10.137 71.1828 9.70515 71.4637 9.27327C71.7447 8.8414 72.014 8.40952 72.2833 7.97764C72.5526 7.54577 72.8101 7.13788 73.0677 6.74199C73.3253 6.34611 73.536 5.98621 73.735 5.65031L74.6482 5.60232L74.6248 5.62631Z" fill="#1D1D1B"/>
<path id="Vector_16" d="M87.2925 0.611816C86.9296 1.21164 86.5315 1.83547 86.0983 2.49528C85.6651 3.15509 85.2319 3.8149 84.8105 4.46272C84.389 5.11053 83.9675 5.74635 83.5694 6.35817C83.1714 6.97 82.8202 7.52184 82.5041 8.03769C82.1997 8.54155 81.9538 8.98542 81.7665 9.35732C81.5792 9.72921 81.4972 9.99314 81.4972 10.1731C81.4972 10.2811 81.5206 10.365 81.5791 10.425C81.626 10.485 81.7079 10.521 81.8133 10.521C82.0475 10.521 82.3167 10.425 82.6094 10.2331C82.9021 10.0411 83.2651 9.74121 83.6865 9.32133C84.0495 8.96143 84.4124 8.55355 84.7519 8.10967C85.0915 7.6658 85.3959 7.22193 85.6534 6.79005L85.7705 6.85003C85.6885 7.00599 85.5715 7.18594 85.4427 7.38988C85.3022 7.59382 85.1617 7.80976 84.9978 8.0257C84.8339 8.24164 84.6583 8.46957 84.4709 8.6975C84.2836 8.92544 84.0963 9.14138 83.8973 9.33332C83.5226 9.72921 83.148 10.0531 82.785 10.305C82.4221 10.557 82.0826 10.6889 81.7782 10.6889C81.4738 10.6889 81.2513 10.629 81.1108 10.497C80.9703 10.365 80.8884 10.1971 80.8884 10.0051C80.8884 9.82518 80.9235 9.64524 81.0055 9.47728C81.0757 9.30933 81.1577 9.15337 81.2279 9.02141H81.2045C81.0523 9.17737 80.8884 9.36931 80.7011 9.56126C80.5137 9.7532 80.3264 9.94515 80.1157 10.1131C79.905 10.2811 79.6942 10.425 79.4601 10.533C79.2259 10.641 78.9918 10.7009 78.7459 10.7009C78.4064 10.7009 78.1488 10.593 77.9615 10.389C77.7742 10.1731 77.6922 9.93315 77.6922 9.64523C77.6922 9.23735 77.8327 8.80547 78.102 8.32561C78.3712 7.84575 78.7108 7.40188 79.1205 6.982C79.5303 6.57411 79.9635 6.22621 80.4318 5.95029C80.9001 5.67437 81.3333 5.53041 81.7431 5.53041C82.0475 5.53041 82.2816 5.62638 82.4572 5.81833C82.6328 6.01027 82.7148 6.25021 82.7148 6.55012H82.7616L86.391 0.63581H87.3159L87.2925 0.611816ZM82.305 6.53812C82.305 6.31019 82.2699 6.10625 82.1879 5.93829C82.1177 5.77034 81.9421 5.67437 81.6728 5.67437C81.4855 5.67437 81.2748 5.74635 81.0523 5.87831C80.8299 6.01027 80.5957 6.19022 80.3615 6.40616C80.1274 6.6221 79.9049 6.87403 79.6825 7.16194C79.4601 7.44986 79.2727 7.73778 79.0971 8.0257C78.9332 8.31362 78.7927 8.60153 78.6874 8.87745C78.582 9.15338 78.5352 9.4053 78.5352 9.62124C78.5352 9.82518 78.5703 9.99314 78.6522 10.1251C78.7225 10.2571 78.863 10.329 79.062 10.329C79.2259 10.329 79.4249 10.2571 79.6474 10.1251C79.8698 9.99314 80.104 9.81319 80.3381 9.59725C80.5723 9.38131 80.8182 9.12938 81.0523 8.85346C81.2865 8.57754 81.4972 8.30162 81.6845 8.0137C81.8718 7.73778 82.024 7.46186 82.1411 7.19793C82.2582 6.93401 82.3167 6.70607 82.3167 6.51413L82.305 6.53812Z" fill="#1D1D1B"/>
</g>
</g>
</svg>
